<svg width="18" height="18" viewBox="0 0 18 18" fill="none" xmlns="http://www.w3.org/2000/svg">
<path d="M8.64845 14.8192C8.43596 14.6001 8.41664 14.2571 8.5905 14.0155L8.64845 13.9462L13.4446 9L8.64845 4.05377C8.43596 3.83462 8.41664 3.49169 8.5905 3.25003L8.64845 3.1808C8.86094 2.96165 9.19345 2.94173 9.42776 3.12103L9.49489 3.1808L14.714 8.56351C14.9265 8.78266 14.9459 9.1256 14.772 9.36725L14.714 9.43649L9.49489 14.8192C9.26115 15.0603 8.88219 15.0603 8.64845 14.8192Z" fill="#12131A"/>
<path d="M3.30153 14.8192C3.08903 14.6001 3.06972 14.2571 3.24357 14.0155L3.30153 13.9462L8.09765 9L3.30153 4.05377C3.08903 3.83462 3.06972 3.49169 3.24357 3.25003L3.30153 3.1808C3.51402 2.96165 3.84653 2.94173 4.08084 3.12103L4.14797 3.1808L9.36712 8.56351C9.57961 8.78266 9.59893 9.1256 9.42508 9.36725L9.36712 9.43649L4.14797 14.8192C3.91423 15.0603 3.53526 15.0603 3.30153 14.8192Z" fill="#12131A"/>
</svg>
