<svg width="18" height="18" viewBox="0 0 18 18" fill="none" xmlns="http://www.w3.org/2000/svg">
<path d="M9.79589 14.8192C10.0084 14.6001 10.0277 14.2571 9.85384 14.0155L9.79589 13.9462L4.99976 9L9.79589 4.05377C10.0084 3.83462 10.0277 3.49169 9.85384 3.25003L9.79589 3.1808C9.5834 2.96165 9.25088 2.94173 9.01657 3.12103L8.94944 3.1808L3.73029 8.56351C3.5178 8.78266 3.49848 9.1256 3.67234 9.36725L3.73029 9.43649L8.94944 14.8192C9.18318 15.0603 9.56215 15.0603 9.79589 14.8192Z" fill="#BABDCC"/>
<path opacity="0.5" d="M15.1426 14.8192C15.3551 14.6001 15.3744 14.2571 15.2005 14.0155L15.1426 13.9462L10.3464 9L15.1426 4.05377C15.3551 3.83462 15.3744 3.49169 15.2005 3.25003L15.1426 3.1808C14.9301 2.96165 14.5976 2.94173 14.3633 3.12103L14.2961 3.1808L9.07697 8.56351C8.86448 8.78266 8.84516 9.1256 9.01902 9.36725L9.07697 9.43649L14.2961 14.8192C14.5299 15.0603 14.9088 15.0603 15.1426 14.8192Z" fill="#BABDCC"/>
</svg>
