<svg width="58" height="58" viewBox="0 0 58 58" fill="none" xmlns="http://www.w3.org/2000/svg">
<rect x="0.5" y="0.5" width="57" height="57" rx="11.5" fill="#F1F5F9"/>
<rect x="0.5" y="0.5" width="57" height="57" rx="11.5" stroke="#E2E8F0"/>
<path d="M36.125 46.0208H21.875C16.65 46.0208 15.9375 43.1708 15.9375 40.0833V26.1817C15.9375 25.5325 16.4758 24.9942 17.125 24.9942C17.7742 24.9942 18.3125 25.5325 18.3125 26.1817V40.0833C18.3125 42.8383 18.7875 43.6458 21.875 43.6458H36.125C39.2125 43.6458 39.6875 42.8383 39.6875 40.0833V26.1817C39.6875 25.5325 40.2258 24.9942 40.875 24.9942C41.5242 24.9942 42.0625 25.5325 42.0625 26.1817V40.0833C42.0625 43.1708 41.35 46.0208 36.125 46.0208Z" fill="#292D32"/>
<path d="M40.0832 27.0208H17.9165C14.0848 27.0208 11.979 24.915 11.979 21.0833V17.9167C11.979 14.085 14.0848 11.9792 17.9165 11.9792H40.0832C43.9148 11.9792 46.0207 14.085 46.0207 17.9167V21.0833C46.0207 24.915 43.9148 27.0208 40.0832 27.0208ZM17.9165 14.3542C15.4148 14.3542 14.354 15.415 14.354 17.9167V21.0833C14.354 23.585 15.4148 24.6458 17.9165 24.6458H40.0832C42.5848 24.6458 43.6457 23.585 43.6457 21.0833V17.9167C43.6457 15.415 42.5848 14.3542 40.0832 14.3542H17.9165Z" fill="#292D32"/>
<path d="M31.8815 33.3542H26.1182C25.469 33.3542 24.9307 32.8158 24.9307 32.1667C24.9307 31.5175 25.469 30.9792 26.1182 30.9792H31.8815C32.5307 30.9792 33.069 31.5175 33.069 32.1667C33.069 32.8158 32.5307 33.3542 31.8815 33.3542Z" fill="#292D32"/>
</svg>
